<svg viewBox="0 0 32 32" height="32" width="32" xmlns="http://www.w3.org/2000/svg" xml:space="preserve" style="fill-rule:evenodd;clip-rule:evenodd;stroke-linejoin:round;stroke-miterlimit:2"><path d="M480.368 419C541.457 178.293 759.738 0 1019.33 0c295.72 0 537.82 231.356 555.03 522.782-29.83-5.008-60.46-7.615-91.69-7.615-167.71 0-318 75.153-419 193.59V511.316c0-50.985-41.33-92.316-92.32-92.316H480.368Zm583.302 356.572C1155.72 642.925 1309.12 556 1482.67 556c281.29 0 509.66 228.374 509.66 509.67 0 270.51-211.2 492.08-477.56 508.67.37-7.34.56-14.74.56-22.17 0-235.39-191.1-426.5-426.5-426.5-8.45 0-16.84.24-25.16.73V775.572Zm0 383.558c8.32-.53 16.71-.8 25.16-.8 217.36 0 393.84 176.48 393.84 393.84 0 217.36-176.48 393.83-393.84 393.83C871.471 1946 695 1769.53 695 1552.17c0-8.46.267-16.85.793-25.17H971.35c50.99 0 92.32-41.33 92.32-92.32v-275.55ZM84.929 463.333h849.475c46.905 0 84.926 38.024 84.926 84.929v849.478c0 46.9-38.021 84.93-84.926 84.93H84.929C38.024 1482.67 0 1444.64 0 1397.74V548.262c0-46.905 38.024-84.929 84.929-84.929Zm294.402 499.288a465.328 465.328 0 0 0 81.964 42.859c36.047 15.17 63.338 27.38 81.871 36.65a158.49 158.49 0 0 1 43.414 30.26 53.275 53.275 0 0 1 15.753 38.27 55.967 55.967 0 0 1-28.449 49.99 158.444 158.444 0 0 1-83.4 17.7 326.478 326.478 0 0 1-92.018-14.73 266.354 266.354 0 0 1-83.4-39.85v112.36a349.48 349.48 0 0 0 82.612 24.28 595.118 595.118 0 0 0 101.933 8.34 357.51 357.51 0 0 0 112.312-16.31c30.887-9.56 58.279-28 78.767-53.01a146.492 146.492 0 0 0 29.468-94.8 151.191 151.191 0 0 0-18.533-78.76 156.917 156.917 0 0 0-51.801-52.174 571.842 571.842 0 0 0-87.663-43.229 70.322 70.322 0 0 0-9.915-3.985c-30.889-12.757-54.056-22.982-69.5-30.673a124.638 124.638 0 0 1-37.067-26.503 49.853 49.853 0 0 1-13.9-34.843 53.7 53.7 0 0 1 32.433-49.206 172.314 172.314 0 0 1 81.871-17.329 331.709 331.709 0 0 1 79.647 9.545 235.031 235.031 0 0 1 68.11 27.8V698.706a435.148 435.148 0 0 0-150.583-21.082 353.459 353.459 0 0 0-114.304 17.699 185.847 185.847 0 0 0-83.678 54.581 135.25 135.25 0 0 0-31.46 91.045 139.837 139.837 0 0 0 16.912 70.288 156.785 156.785 0 0 0 48.604 51.384Z" style="fill:#fff" transform="matrix(.01506 0 0 .01506 1 1.35)"/></svg>