<?xml version="1.0" encoding="UTF-8" standalone="no"?>
<svg xmlns="http://www.w3.org/2000/svg" height="32" width="32" version="1.0" viewBox="0 0 32 32">
 <path d="m17.511 2.7183c-5.504 0.9839-11.007 1.9646-16.511 2.9493-0.000806 7.4624 0.000806 14.926 0 22.388 5.5043 0.97906 11.007 1.9695 16.513 2.9445-0.000807-9.427 0.0028-18.855-0.0028-28.282zm3.5982 3.9141c-0.74694-0.019969-1.476 0.30419-2.0022 0.82967-0.0038 1.3089 0.0028 2.617-0.0028 3.9259 0.56697 0.5839 1.3896 0.93241 2.2081 0.84127 0.67422-0.0645 1.3065-0.4041 1.7517-0.91057 1.5565 0.6105 2.8041 1.921 3.3711 3.4904-0.61373 0.62098-0.97103 1.5057-0.85651 2.3831 0.05963 0.66454 0.39278 1.2775 0.85247 1.7509-0.56373 1.5654-1.8073 2.8678-3.3574 3.4791-0.49599-0.5218-1.1742-0.88786-1.9041-0.90642-0.77503-0.0435-1.5356 0.29996-2.0662 0.85563 0.0038 1.2976 0.0028 2.5953 0.00075 3.8929 0.30404 0.33469 0.696 0.58382 1.125 0.72496 0.93553 0.31372 2.0332 0.05334 2.7219-0.65476 0.66615-0.64921 0.95001-1.6388 0.78468-2.5477 1.8396-0.75164 3.3212-2.3017 4.0276-4.155 1.1613 0.24596 2.4033-0.38873 2.9259-1.4436 0.58389-1.1154 0.32985-2.6081-0.6331-3.4323-0.60728-0.55486-1.4775-0.78872-2.284-0.63549-0.71-1.861-2.197-3.407-4.038-4.1694 0.072-0.4202 0.06-0.8532-0.052-1.2645-0.276-1.0976-1.285-1.9816-2.424-2.0461-0.04988-0.00469-0.09979-0.0075-0.14958-0.00844zm-11.838 4.2936c0.61794-0.0047 1.2369 0.07331 1.8116 0.31226-0.000807 0.81052-0.0019 1.6203 0 2.4308-0.45889-0.37018-1.0112-0.63556-1.6024-0.69686-0.48388-0.06047-1.042-0.02897-1.413 0.32827-0.43954 0.42341-0.4501 1.1508-0.15008 1.6557 0.25485 0.36857 0.64035 0.61935 1.0162 0.85323 0.70325 0.42421 1.401 0.89608 1.9139 1.5493 0.58309 0.78068 0.7467 1.8089 0.61041 2.7582-0.09436 0.81697-0.48145 1.6258-1.1597 2.1137-0.53631 0.40243-1.2161 0.55166-1.8758 0.57021-0.94036 0.0105-1.9219-0.19194-2.6816-0.77423-0.0047-0.81535 0.0028-1.6307-0.0038-2.446 0.50889 0.57986 1.1774 1.0629 1.9565 1.1766 0.47018 0.07903 1.0355 0.04519 1.363-0.34918 0.4088-0.492 0.3048-1.262-0.1057-1.72-0.546-0.609-1.3266-0.924-1.942-1.45-0.675-0.568-1.1638-1.376-1.2687-2.26-0.129-1.017 0.0782-2.126 0.7581-2.921 0.52744-0.64761 1.3372-1.0161 2.1574-1.1024 0.20404-0.01697 0.40997-0.02775 0.61595-0.02925z" fill="#fff"/>
</svg>
